<mxfile host="app.diagrams.net" modified="2023-05-31T03:07:55.113Z" agent="Mozilla/5.0 (Windows NT 10.0; Win64; x64) AppleWebKit/537.36 (KHTML, like Gecko) Chrome/113.0.0.0 Safari/537.36" version="21.3.2" etag="1-GqKRr_0DkdV4CJaoxP" type="github">
  <diagram name="第 1 页" id="XHUtOYXHt9As3HcFjHVz">
    <mxGraphModel>
      <root>
        <mxCell id="0" />
        <mxCell id="1" parent="0" />
      </root>
    </mxGraphModel>
  </diagram>
</mxfile>
